<svg xmlns="http://www.w3.org/2000/svg" xml:space="preserve" version="1.1" viewBox="1215 155 1360 1575">

 <g>
  <title>Layer 1</title>
  <path stroke="null" id="svg_1" d="m1215.00006,155l1359.99976,0l0,1574.99997l-1359.99976,0l0,-1574.99997z" opacity="undefined" fill="#A7A9AC"/>
  <g id="svg_2">
   <polygon id="svg_3" points="1544.7,213.2 1535.4,217.7 1535.4,217.6  "/>
   <path id="svg_4" d="m1570.4,307.2l0,0z"/>
   <path id="svg_5" d="m1688.1,1070.8l0,0z"/>
   <path id="svg_6" fill="#D1D3D4" d="m2165.2,696.5c0.1,0 0.1,0 0,0c0.1,0 0.1,0 0,0c-0.2,0.4 -0.3,0.8 -0.5,1.2c0.2,-0.4 0.4,-0.8 0.5,-1.2z" class="st1"/>
   <path id="svg_7" fill="#D1D3D4" d="m2165.3,696.5c0.1,-0.4 0.3,-0.7 0.5,-1.1l0,0c-0.2,0.4 -0.4,0.7 -0.5,1.1z" class="st1"/>
   <path id="svg_8" fill="#D1D3D4" d="m2173.5,681.4c-0.5,0.7 -1,1.4 -1.5,2.2l0,0c-1.5,2.3 -2.9,4.8 -4.3,7.5c-0.2,0.3 -0.3,0.7 -0.5,1c-0.2,0.5 -0.5,1 -0.7,1.5c0.3,-0.7 0.6,-1.3 0.9,-2c0.3,-0.6 0.6,-1.2 0.9,-1.8c0.2,-0.4 0.4,-0.8 0.7,-1.2c0.1,-0.2 0.3,-0.5 0.4,-0.7c0,-0.1 0.1,-0.1 0.1,-0.2c0.3,-0.5 0.6,-1 0.8,-1.5c0.2,-0.3 0.4,-0.6 0.5,-0.9c0.4,-0.6 0.7,-1.2 1.1,-1.7c0.1,-0.2 0.2,-0.4 0.4,-0.5c0,-0.1 0.1,-0.1 0.1,-0.2c0.5,-0.5 0.8,-1 1.1,-1.5z" class="st1"/>
   <path id="svg_9" fill="#D1D3D4" d="m2176.7,677.3c-0.9,1.1 -1.8,2.2 -2.7,3.4c0.9,-1.2 1.8,-2.3 2.7,-3.4z" class="st1"/>
   <path id="svg_10" fill="#939598" d="m2232.5,756.8l0,123l-9.4,-1.8l-1,-0.2l-18.1,-3.4l0,-102.9c0,-45.8 -21.5,-75.9 -32,-87.8l0,0c0.1,-0.2 0.2,-0.4 0.4,-0.5c0,-0.1 0.1,-0.1 0.1,-0.2c0.4,-0.5 0.7,-1 1,-1.5c0.2,-0.2 0.3,-0.5 0.5,-0.7c0.9,-1.2 1.8,-2.3 2.7,-3.4c0,0 0.1,-0.1 0.1,-0.1c0.1,-0.1 0.2,-0.2 0.3,-0.3c0.2,-0.2 0.3,-0.4 0.5,-0.6c0.2,-0.2 0.3,-0.4 0.5,-0.6c0.3,-0.4 0.7,-0.7 1,-1.1c5.5,-5.8 10.6,-9 13.5,-10.5c0.1,-0.1 0.3,-0.1 0.4,-0.2c0.1,-0.1 0.2,-0.1 0.4,-0.2c0.1,-0.1 0.2,-0.1 0.3,-0.2c0.4,-0.2 0.7,-0.3 1,-0.4c0.1,0 0.1,0 0.1,-0.1c0,0 0,0 0,0c0.1,0 0.1,0 0.1,0s0.1,0 0.1,0.1c0.2,0.2 0.6,0.5 1.1,1c0.1,0.1 0.2,0.2 0.4,0.4c0.1,0.1 0.3,0.3 0.4,0.5c0,0 0.1,0.1 0.1,0.1c0.1,0.1 0.2,0.2 0.3,0.3l0.1,0c1.5,1.6 3.7,4 6.3,7.1c0.3,0.4 0.6,0.8 1,1.2c0.1,0.1 0.1,0.2 0.2,0.2c0.1,0.2 0.3,0.3 0.4,0.5c0.3,0.3 0.5,0.7 0.8,1c0.2,0.3 0.4,0.5 0.6,0.8c0.4,0.6 0.8,1.1 1.3,1.7c0.2,0.3 0.4,0.6 0.6,0.9c0.1,0.1 0.1,0.2 0.2,0.3c0.1,0.2 0.3,0.4 0.4,0.6c0.1,0.1 0.1,0.2 0.2,0.3c0.1,0.2 0.3,0.4 0.4,0.6c0.3,0.5 0.6,1 1,1.5c0.1,0.2 0.2,0.3 0.3,0.5c0.2,0.2 0.3,0.5 0.5,0.8c0.8,1.2 1.6,2.6 2.4,3.9c1.9,3.3 3.9,6.9 5.7,10.8c7,15.2 12.8,34.7 12.8,58.6z" class="st2"/>
   <path id="svg_11" fill="#E6E7E8" d="m2376.9,607l0,0z" class="st3"/>
   <polygon id="svg_12" points="1544.7,213.2 1535.4,217.7 1535.4,217.6  "/>
   <path id="svg_13" fill="none" d="m2165.2,696.5c0.1,0 0.1,0 0,0c0.1,0 0.1,0 0,0c-0.2,0.4 -0.3,0.8 -0.5,1.2c0.2,-0.4 0.4,-0.8 0.5,-1.2z" class="st4"/>
   <path id="svg_14" fill="none" d="m2165.3,696.5c0.1,-0.4 0.3,-0.7 0.5,-1.1l0,0c-0.2,0.4 -0.4,0.7 -0.5,1.1z" class="st4"/>
   <path id="svg_15" fill="none" d="m2173.5,681.4c-0.5,0.7 -1,1.4 -1.5,2.2l0,0c-1.5,2.3 -2.9,4.8 -4.3,7.5c-0.2,0.3 -0.3,0.7 -0.5,1c-0.2,0.5 -0.5,1 -0.7,1.5c0.3,-0.7 0.6,-1.3 0.9,-2c0.3,-0.6 0.6,-1.2 0.9,-1.8c0.2,-0.4 0.4,-0.8 0.7,-1.2c0.1,-0.2 0.3,-0.5 0.4,-0.7c0,-0.1 0.1,-0.1 0.1,-0.2c0.3,-0.5 0.6,-1 0.8,-1.5c0.2,-0.3 0.4,-0.6 0.5,-0.9c0.4,-0.6 0.7,-1.2 1.1,-1.7c0.1,-0.2 0.2,-0.4 0.4,-0.5c0,-0.1 0.1,-0.1 0.1,-0.2c0.5,-0.5 0.8,-1 1.1,-1.5z" class="st4"/>
   <path id="svg_16" fill="none" d="m2176.7,677.3c-0.9,1.1 -1.8,2.2 -2.7,3.4c0.9,-1.2 1.8,-2.3 2.7,-3.4z" class="st4"/>
   <path id="svg_17" fill="#FFFFFF" d="m1941.2,357l0,0l0,0l-62.2,24.1l62.2,-24.1l0,0l35.8,-13.9l-35.8,13.9zm208.5,1237.6c79.3,8 152.4,19.6 216.6,34.2l0,-0.2c-64.8,-14.6 -138,-26.1 -216.6,-34zm207.3,-1109.3l-30,-8.7l0,-43.1l0,0l0,43.1l30,8.7l0,0zm-115.2,-86.7l0,0l0,53.1l0,0l0,-53.1zm-9.3,481.2l-9.4,-1.8l9.4,1.8l0,0zm-18.5,-192.2c-0.8,-1.4 -1.6,-2.7 -2.4,-3.9c0.5,0.8 0.9,1.5 1.4,2.3c0.3,0.5 0.6,1 1,1.6zm-2.4,-3.9c-0.2,-0.3 -0.3,-0.5 -0.5,-0.8c-0.1,-0.2 -0.2,-0.3 -0.3,-0.5c0.1,0.2 0.2,0.3 0.3,0.5c0.1,0.3 0.3,0.5 0.5,0.8zm-2.9,-4.3c-0.1,-0.1 -0.1,-0.2 -0.2,-0.3c-0.2,-0.3 -0.4,-0.6 -0.6,-0.9c0.2,0.3 0.4,0.6 0.6,0.9c0.1,0.1 0.1,0.2 0.2,0.3zm-1,-284.1l0,0l0,46.5l0,0l0,-46.5zm-1.7,280.3c0.2,0.3 0.4,0.5 0.6,0.8c-0.2,-0.3 -0.4,-0.5 -0.6,-0.8c-0.3,-0.3 -0.5,-0.7 -0.8,-1c-0.1,-0.2 -0.3,-0.3 -0.4,-0.5c0.1,0.2 0.2,0.3 0.4,0.5c0.2,0.3 0.5,0.7 0.8,1zm-8.7,-10.2c-0.1,-0.1 -0.2,-0.2 -0.3,-0.3c0.1,0.1 0.2,0.3 0.3,0.3zm-19.8,10.9c-0.2,0.2 -0.3,0.4 -0.5,0.6c-0.1,0.1 -0.2,0.2 -0.3,0.3c0.1,-0.1 0.2,-0.2 0.3,-0.3c0.2,-0.2 0.4,-0.4 0.5,-0.6zm-20.2,189.3l0,0l19.4,3.7l-19.4,-3.7zm11.1,-175.8c-0.3,0.6 -0.6,1.2 -0.9,1.8c0.1,-0.2 0.2,-0.3 0.2,-0.5c0.2,-0.4 0.4,-0.8 0.7,-1.3zm-0.9,1.8c-0.3,0.7 -0.6,1.3 -0.9,2c0.2,-0.5 0.4,-1 0.7,-1.5c0,-0.1 0.1,-0.3 0.2,-0.5zm-1.8,3.8c-0.2,0.4 -0.3,0.7 -0.5,1.1c0.2,-0.4 0.4,-0.7 0.5,-1.1l0,0zm-0.5,1.1c-0.1,0.4 -0.3,0.8 -0.5,1.2c0.2,-0.4 0.4,-0.8 0.5,-1.2c0,0 0,0 0,0zm-0.7,2c-0.2,0.5 -0.4,1 -0.6,1.6c-0.2,0.7 -0.5,1.3 -0.7,2c0.2,-0.7 0.5,-1.4 0.7,-2.1c0.2,-0.5 0.4,-1 0.6,-1.5zm-6.8,32c0.1,-1.5 0.2,-2.9 0.4,-4.4c-0.2,1.5 -0.3,2.9 -0.4,4.4zm-37,-314.1l0,0l0,-55.2l0,0l0,55.2zm-337.9,1131.7l231.8,0l0,-48.8l-231.8,3.6l0,45.2zm0,-90.4l231.8,-7.2l0,-48.8l-231.8,10.8l0,45.2zm0,-90.4l231.8,-14.4l0,-48.8l-231.8,18l0,45.2zm0,-180.7l231.8,-28.8l0,-48.8l-231.8,32.4l0,45.2zm0,-90.4l231.8,-36l0,-48.8l-231.8,39.6l0,45.2zm0,-180.7l231.8,-50.4l0,-48.8l-231.8,54l0,45.2zm0,-90.4l231.8,-57.6l0,-48.8l-231.8,61.2l0,45.2zm0,-90.3l231.8,-64.8l0,-48.8l-231.8,68.4l0,45.2zm0,-180.8l231.8,-79.2l0,-48.8l-231.8,82.8l0,45.2z" class="st5"/>
   <path id="svg_18" fill="#FFFFFF" d="m2403.6,448.6l-37.2,-11.5l-9.3,-2.9l0,51.1l0,0l0,0l-30,-8.7l0,-43.1l0,0l0,-8.5l-85.2,-26.3l0,0l0,0l0,53.1l0,0l0,0l-26.9,-7.9l-7.2,-2.1l0,0l0,-46.5l0,0l0,-7.2l-87,-26.9l0,55.2l0,0l0,0l-35.8,-10.5l0,0l0,-55.8l-70.3,-21.7l0,48.8l-37.6,14l-35.9,13.4l-62.1,23.2l-34.1,12.7l-62.1,23.2l0,45.2l231.8,-82.8l0,48.8l-231.9,79.1l0,135.5l231.8,-68.4l0,48.8l-231.8,64.8l0,45.2l231.8,-61.2l0,48.8l-231.8,57.6l0,45.2l231.8,-54l0,48.8l-231.8,50.4l0,135.6l231.8,-39.6l0,48.8l-231.8,36l0,45.2l231.8,-32.4l0,48.8l-231.8,28.8l0,135.6l231.8,-18l0,48.8l-231.8,14.4l0,45.2l231.8,-10.8l0,48.8l-231.8,7.2l0,45.2l231.8,-3.6l0,48.8l-231.8,0l0,36.6c1.4,-0.1 2.7,-0.1 4.1,-0.2c0.1,0 0.2,0 0.3,0c2.4,-0.1 4.9,-0.2 7.3,-0.3c8,-0.3 16,-0.6 24.1,-0.8c3.7,-0.1 7.5,-0.2 11.2,-0.3c5.6,-0.1 11.3,-0.3 16.9,-0.4c2.2,0 4.3,-0.1 6.5,-0.1c1.3,0 2.5,0 3.8,-0.1c2.8,0 5.7,-0.1 8.5,-0.1c5.8,-0.1 11.5,-0.1 17.3,-0.1c4.3,0 8.7,0 13,0c4.4,0 8.7,0 13,0c3.3,0 6.6,0 9.9,0.1c2.2,0 4.5,0 6.7,0.1c2.6,0 5.2,0.1 7.8,0.1c0.6,0 1.3,0 1.9,0c2.6,0 5.3,0.1 7.9,0.1c3.6,0.1 7.2,0.1 10.8,0.2c9.2,0.2 18.3,0.4 27.4,0.7c3.7,0.1 7.4,0.2 11,0.4c2.1,0.1 4.3,0.2 6.4,0.2c6.3,0.2 12.6,0.5 18.8,0.8c8.4,0.4 16.8,0.8 25.1,1.3c10.4,0.6 20.7,1.2 30.9,1.9c6.2,0.4 12.3,0.9 18.4,1.3c0,0 0,0 0,0c4.1,0.3 8.1,0.6 12.1,0.9c0,0 0,0 0,0c6.1,0.5 12.1,1 18.1,1.5c9.2,0.8 18.3,1.7 27.4,2.6c78.6,7.9 151.8,19.4 216.6,34l0,-1014.6l10.6,2.9l0,-14.6c0,-2.7 0.5,-6 2.1,-9.2c3.5,-7.4 12.2,-14.1 31,-10.1c1.5,0.3 2.9,-0.8 2.9,-2.3l0,-129.3l-9,-2.9zm-171.1,431.2l0,0l0,0l-9.4,-1.8l-1,-0.2l-18.1,-3.4l-25.2,-4.8l-2.1,-0.4l-19.4,-3.7l0,-123.2c0,-0.8 0,-1.6 0,-2.4s0,-1.6 0.1,-2.4c0,-0.8 0.1,-1.6 0.1,-2.3c0,-0.8 0.1,-1.5 0.1,-2.3c0,0 0,0 0,0c0.1,-0.8 0.1,-1.5 0.2,-2.2c0.1,-1.5 0.2,-2.9 0.4,-4.4c0.1,-1.4 0.3,-2.8 0.5,-4.2c0.1,-0.7 0.2,-1.4 0.3,-2c0.1,-0.5 0.2,-1 0.2,-1.5c0.1,-0.8 0.3,-1.6 0.4,-2.4c0.1,-0.8 0.3,-1.6 0.5,-2.4c0,-0.2 0.1,-0.3 0.1,-0.5c0.1,-0.7 0.3,-1.3 0.5,-2c0,-0.1 0,-0.1 0,-0.2c0.2,-0.8 0.4,-1.5 0.6,-2.3c0.4,-1.5 0.8,-3 1.3,-4.5c0.2,-0.6 0.4,-1.3 0.6,-1.9c0,-0.1 0.1,-0.2 0.1,-0.2c0.2,-0.7 0.5,-1.4 0.7,-2c0.2,-0.5 0.4,-1.1 0.6,-1.6c0.1,-0.3 0.2,-0.5 0.3,-0.8c0.1,-0.4 0.3,-0.8 0.5,-1.2c0,0 0,0 0,0c0.1,-0.4 0.3,-0.7 0.5,-1.1c0.1,-0.2 0.2,-0.4 0.2,-0.6c0.1,-0.3 0.2,-0.6 0.4,-0.8c0,-0.1 0.1,-0.2 0.2,-0.4c0.3,-0.7 0.6,-1.3 0.9,-2c0.3,-0.6 0.6,-1.2 0.9,-1.8c0.2,-0.4 0.4,-0.8 0.7,-1.2c0.1,-0.2 0.3,-0.5 0.4,-0.7c0,-0.1 0.1,-0.1 0.1,-0.2c0.1,-0.2 0.2,-0.4 0.3,-0.5c0.2,-0.3 0.3,-0.6 0.5,-0.9c0.2,-0.3 0.4,-0.6 0.5,-0.9c0.4,-0.6 0.7,-1.2 1.1,-1.8c0.1,-0.2 0.2,-0.3 0.4,-0.5c0,-0.1 0.1,-0.1 0.1,-0.2c0.3,-0.5 0.7,-1 1,-1.5c0.2,-0.2 0.3,-0.5 0.5,-0.7c0.9,-1.2 1.8,-2.3 2.7,-3.4c0,0 0.1,-0.1 0.1,-0.1c0.1,-0.1 0.2,-0.2 0.3,-0.3c0.2,-0.2 0.3,-0.4 0.5,-0.6c0.2,-0.2 0.3,-0.4 0.5,-0.6c0.3,-0.4 0.7,-0.7 1,-1.1c5.5,-5.8 10.6,-9 13.5,-10.5c0.1,-0.1 0.3,-0.2 0.4,-0.2c0.1,-0.1 0.2,-0.1 0.4,-0.2c0.1,-0.1 0.2,-0.1 0.3,-0.2c0.4,-0.2 0.7,-0.3 1,-0.4c0.1,0 0.1,-0.1 0.1,-0.1c0,0 0,0 0,0c0.1,0 0.1,-0.1 0.1,-0.1l0,0c0,0 0.1,0 0.1,0.1c0.2,0.2 0.6,0.5 1.1,1c0.1,0.1 0.2,0.2 0.4,0.4c0.1,0.1 0.3,0.3 0.4,0.5c0,0 0.1,0.1 0.1,0.1c0.1,0.1 0.2,0.2 0.3,0.3l0.1,0c1.5,1.6 3.7,4 6.3,7.1c0.3,0.4 0.6,0.8 1,1.2c0.1,0.1 0.1,0.2 0.2,0.2c0.1,0.2 0.3,0.3 0.4,0.5c0.3,0.3 0.5,0.7 0.8,1c0.2,0.3 0.4,0.5 0.6,0.8c0.4,0.6 0.8,1.1 1.3,1.7c0.2,0.3 0.4,0.6 0.6,0.9c0.1,0.1 0.1,0.2 0.2,0.3c0.2,0.2 0.3,0.4 0.4,0.6c0.1,0.1 0.2,0.2 0.2,0.3c0.1,0.2 0.3,0.4 0.4,0.7c0.3,0.5 0.6,1 1,1.5c0.1,0.2 0.2,0.3 0.3,0.5c0.2,0.2 0.3,0.5 0.5,0.8c0.8,1.2 1.6,2.6 2.4,3.9c1.9,3.3 3.9,6.9 5.7,10.8c2.2,4.6 4.2,9.5 6,15c4.1,12.3 6.9,26.8 6.9,43.4l0,123.2l-0.2,0z" class="st5"/>
   <path id="svg_19" d="m2232.5,756.8l0,123l-9.4,-1.8l-1,-0.2l-18.1,-3.4l0,-102.9c0,-45.8 -21.5,-75.9 -32,-87.8l0,0c0.1,-0.2 0.2,-0.4 0.4,-0.5c0,-0.1 0.1,-0.1 0.1,-0.2c0.4,-0.5 0.7,-1 1,-1.5c0.2,-0.2 0.3,-0.5 0.5,-0.7c0.9,-1.2 1.8,-2.3 2.7,-3.4c0,0 0.1,-0.1 0.1,-0.1c0.1,-0.1 0.2,-0.2 0.3,-0.3c0.2,-0.2 0.3,-0.4 0.5,-0.6c0.2,-0.2 0.3,-0.4 0.5,-0.6c0.3,-0.4 0.7,-0.7 1,-1.1c5.5,-5.8 10.6,-9 13.5,-10.5c0.1,-0.1 0.3,-0.1 0.4,-0.2c0.1,-0.1 0.2,-0.1 0.4,-0.2c0.1,-0.1 0.2,-0.1 0.3,-0.2c0.4,-0.2 0.7,-0.3 1,-0.4c0.1,0 0.1,0 0.1,-0.1c0,0 0,0 0,0c0.1,0 0.1,0 0.1,0s0.1,0 0.1,0.1c0.2,0.2 0.6,0.5 1.1,1c0.1,0.1 0.2,0.2 0.4,0.4c0.1,0.1 0.3,0.3 0.4,0.5c0,0 0.1,0.1 0.1,0.1c0.1,0.1 0.2,0.2 0.3,0.3l0.1,0c1.5,1.6 3.7,4 6.3,7.1c0.3,0.4 0.6,0.8 1,1.2c0.1,0.1 0.1,0.2 0.2,0.2c0.1,0.2 0.3,0.3 0.4,0.5c0.3,0.3 0.5,0.7 0.8,1c0.2,0.3 0.4,0.5 0.6,0.8c0.4,0.6 0.8,1.1 1.3,1.7c0.2,0.3 0.4,0.6 0.6,0.9c0.1,0.1 0.1,0.2 0.2,0.3c0.1,0.2 0.3,0.4 0.4,0.6c0.1,0.1 0.1,0.2 0.2,0.3c0.1,0.2 0.3,0.4 0.4,0.6c0.3,0.5 0.6,1 1,1.5c0.1,0.2 0.2,0.3 0.3,0.5c0.2,0.2 0.3,0.5 0.5,0.8c0.8,1.2 1.6,2.6 2.4,3.9c1.9,3.3 3.9,6.9 5.7,10.8c7,15.2 12.8,34.7 12.8,58.6z"/>
   <path id="svg_20" d="m2204,771.5l0,102.9l-25.2,-4.8l-2.1,-0.4l-19.4,-3.7l0,-123.2c0,-0.8 0,-1.6 0,-2.4s0,-1.6 0.1,-2.4c0,-0.8 0.1,-1.6 0.1,-2.3c0,-0.8 0.1,-1.5 0.1,-2.3c0,0 0,0 0,0c0.1,-0.8 0.1,-1.5 0.2,-2.2c0.1,-1.5 0.2,-2.9 0.4,-4.4c0.1,-1.4 0.3,-2.8 0.5,-4.2c0.1,-0.7 0.2,-1.4 0.3,-2c0.1,-0.5 0.2,-1 0.2,-1.5c0.1,-0.8 0.3,-1.6 0.4,-2.4c0.1,-0.8 0.3,-1.6 0.5,-2.4c0,-0.2 0.1,-0.3 0.1,-0.5c0.2,-0.7 0.3,-1.3 0.5,-2c0,-0.1 0,-0.1 0,-0.2c0.2,-0.8 0.4,-1.5 0.6,-2.3c0.4,-1.5 0.8,-3 1.3,-4.5c0.2,-0.6 0.4,-1.3 0.6,-1.9c0,-0.1 0.1,-0.2 0.1,-0.2c0.2,-0.7 0.5,-1.4 0.7,-2c0.2,-0.5 0.4,-1.1 0.6,-1.6c0.1,-0.3 0.2,-0.5 0.3,-0.8c0.1,-0.4 0.3,-0.8 0.5,-1.2c0,0 0,0 0,0c0.1,-0.4 0.3,-0.7 0.5,-1.1c0.1,-0.2 0.2,-0.4 0.2,-0.6c0.1,-0.3 0.2,-0.6 0.4,-0.8c0,-0.1 0.1,-0.2 0.2,-0.4c0.3,-0.7 0.6,-1.3 0.9,-2c0.3,-0.6 0.6,-1.2 0.9,-1.8c0.2,-0.4 0.4,-0.8 0.7,-1.2c0.1,-0.2 0.3,-0.5 0.4,-0.7c0,-0.1 0.1,-0.1 0.1,-0.2c0.3,-0.5 0.6,-1 0.8,-1.5c0.2,-0.3 0.4,-0.6 0.5,-0.9c0.4,-0.6 0.7,-1.2 1.1,-1.7l0,0c10.5,11.9 31.9,42 31.9,87.8z"/>
   <polygon id="svg_21" fill="none" points="2241.8,398.6 2241.8,451.8 2241.8,451.8 2215,443.9 2207.7,441.8 2207.7,441.8 2207.7,395.3    2207.7,395.3 2241.8,398.6  " class="st4"/>
   <polygon id="svg_22" fill="none" points="2120.7,361.2 2120.7,416.4 2120.7,416.4 2084.9,406 2084.9,361.2  " class="st4"/>
   <polygon id="svg_23" fill="none" points="2357,434.2 2357,485.4 2327.1,476.6 2327.1,433.5 2327.1,433.5  " class="st4"/>
   <polygon id="svg_24" fill="none" points="1941.2,357 1941.1,357 1941.1,357  " class="st4"/>
   <path id="svg_25" fill="none" d="m2376.9,607" class="st4"/>
   <path id="svg_26" d="m1570.4,307.2l0,0z"/>
   <path id="svg_27" d="m1793.5,325.7l0,11.3l-4.8,2.9l-5.9,3.5l0,1241.3c-0.7,0 -1.5,0.1 -2.2,0.1c-2.1,0.1 -4.2,0.2 -6.3,0.3c-6.3,0.3 -12.6,0.6 -18.8,0.9c-3.6,0.2 -7.2,0.4 -10.8,0.6c-2.2,0.1 -4.5,0.3 -6.7,0.4c-8.6,0.5 -17.2,1.1 -25.8,1.7c-4.1,0.3 -8.2,0.6 -12.2,0.9c-4.1,0.3 -8.1,0.6 -12.2,0.9c-2,0.2 -4.1,0.3 -6.1,0.5c-2,0.2 -4,0.3 -6,0.5c-6.6,0.6 -13.1,1.1 -19.6,1.8c-3.1,0.3 -6.3,0.6 -9.4,0.9c-2.3,0.2 -4.6,0.5 -6.9,0.7c-61.9,6.3 -119.9,14.8 -172.9,25.3l0,-238.6l12.4,-20.6l0,-256.7l15.8,-16.7l0,-176.4l8.3,-10.9l0,-547.7l-10.8,-6.4l0,-11.3l10.8,-5.4l0,-117.5l31.9,-17.8l0,23.5l0,0l4,-1.9l1.6,-0.7l3.8,-1.8l4.4,-2.2l0,-24.5l21.2,-11.8l48.3,0l0,26.9l19.9,0l0,-26.9l48.3,0l36.1,11.2l0,25l13.8,3.9l0,-24.7l45.9,14.2l0,118.3l10.9,3z"/>
   <path id="svg_28" d="m1688.1,1070.8l0,0z"/>
   <g id="svg_29">
    <polygon id="svg_30" points="2014.6,1401.7 2014.6,1450.5 1782.8,1457.7 1782.8,1412.5   "/>
    <polygon id="svg_31" points="2014.6,1304.1 2014.6,1352.9 1782.8,1367.3 1782.8,1322.2   "/>
    <polygon id="svg_32" points="2014.6,1499.3 2014.6,1548.1 1782.8,1548.1 1782.8,1502.9   "/>
    <polygon id="svg_33" points="2014.6,718.7 2014.6,767.5 1782.8,825.1 1782.8,779.9   "/>
    <polygon id="svg_34" points="2014.6,621.1 2014.6,669.9 1782.8,734.8 1782.8,689.6   "/>
    <polygon id="svg_35" points="2014.6,816.3 2014.6,865.1 1782.8,915.5 1782.8,870.3   "/>
    <polygon id="svg_36" points="2014.6,1011.4 2014.6,1060.2 1782.8,1096.2 1782.8,1051.1   "/>
    <polygon id="svg_37" points="2014.6,1109 2014.6,1157.8 1782.8,1186.6 1782.8,1141.4   "/>
    <polygon id="svg_38" points="2014.6,1011.4 2014.6,1060.2 1782.8,1096.2 1782.8,1051.1   "/>
    <polygon id="svg_39" points="2014.6,328.4 2014.6,377.2 1977,391.2 1941.1,404.6 1879,427.8 1844.9,440.5 1782.8,463.6 1782.8,418.5     1788.7,416.2 1844.9,394.3 1879,381.1 1941.1,357 1941.2,357 1977,343.1   "/>
    <polygon id="svg_40" points="2014.6,328.4 1977,343.1 1941.2,357 1941.1,357 1879,381.1 1844.9,394.3 1788.7,416.2 1782.8,418.5   "/>
    <polygon id="svg_41" points="2014.6,426 2014.6,474.8 1782.8,554 1782.8,508.8   "/>
    <polygon id="svg_42" points="2014.6,1109 2014.6,1157.8 1782.8,1186.6 1782.8,1141.4   "/>
   </g>
   <path id="svg_43" d="m2560.4,1700.8c-1,1.8 -2.9,2.9 -4.8,2.9c-0.9,0 -1.7,-0.2 -2.5,-0.6c-129.3,-67.8 -381.1,-110 -657,-110s-527.7,42.1 -657,110c-2.7,1.4 -5.9,0.4 -7.3,-2.3s-0.4,-5.9 2.3,-7.3c57,-29.9 137.4,-54.9 233,-73.5c53.4,-10.4 111.5,-18.9 172.9,-25.1c2.3,-0.2 4.6,-0.5 6.9,-0.7c3.1,-0.3 6.3,-0.6 9.4,-0.9c6.5,-0.6 13.1,-1.2 19.6,-1.8c2,-0.2 4,-0.4 6,-0.5c2,-0.2 4,-0.3 6.1,-0.5c4,-0.3 8.1,-0.6 12.2,-0.9c4.1,-0.3 8.1,-0.6 12.2,-0.9c8.6,-0.6 17.2,-1.2 25.8,-1.7c2.2,-0.1 4.5,-0.3 6.7,-0.4c3.6,-0.2 7.2,-0.4 10.8,-0.6c6.2,-0.3 12.5,-0.6 18.8,-0.9c2.1,-0.1 4.2,-0.2 6.3,-0.3c2.1,-0.1 4.2,-0.2 6.3,-0.3c0.1,0 0.2,0 0.3,0c2.4,-0.1 4.9,-0.2 7.3,-0.3c8,-0.3 16,-0.6 24.1,-0.8c3.7,-0.1 7.5,-0.2 11.2,-0.3c5.6,-0.1 11.3,-0.3 16.9,-0.4c2.2,-0.1 4.3,-0.1 6.5,-0.1c1.3,0 2.5,0 3.8,-0.1c2.8,0 5.7,-0.1 8.5,-0.1c5.8,-0.1 11.5,-0.1 17.3,-0.1c4.3,0 8.7,0 13,0c4.3,0 8.7,0 13,0c3.3,0 6.6,0 9.9,0.1c2.2,0 4.5,0 6.7,0.1c2.6,0 5.2,0.1 7.8,0.1c0.6,0 1.3,0 1.9,0c2.6,0 5.3,0.1 7.9,0.1c3.6,0.1 7.2,0.1 10.8,0.2c9.2,0.2 18.3,0.4 27.4,0.7c3.7,0.1 7.4,0.2 11,0.4c2.1,0.1 4.3,0.2 6.4,0.2c6.3,0.2 12.6,0.5 18.8,0.8c8.4,0.4 16.7,0.8 25.1,1.3c10.4,0.6 20.7,1.2 30.9,1.9c6.1,0.4 12.3,0.9 18.4,1.3c0,0 0,0 0,0c4.1,0.3 8.1,0.6 12.1,0.9c0,0 0,0 0,0c6.1,0.5 12.1,1 18.1,1.5c9.2,0.8 18.3,1.7 27.4,2.6c78.6,7.9 151.8,19.4 216.6,34c77.5,17.5 143.1,39.4 191.8,64.9c2.7,1.5 3.8,4.8 2.4,7.4z"/>
  </g>
 </g>
</svg>